HIERARCHY
ROOT Hips
{
  OFFSET 48.486 94.1833 11.641
  CHANNELS 6 Xposition Yposition Zposition Zrotation Xrotation Yrotation
  JOINT spine
  {
    OFFSET 0 7.80059 0.448573
    CHANNELS 3 Zrotation Xrotation Yrotation
    JOINT spine1
    {
      OFFSET 0 10.1364 0
      CHANNELS 3 Zrotation Xrotation Yrotation
      JOINT spine2
      {
        OFFSET 0 9.71251 0
        CHANNELS 3 Zrotation Xrotation Yrotation
        JOINT Neck
        {
          OFFSET 0 24.9361 1.18887
          CHANNELS 3 Zrotation Xrotation Yrotation
          JOINT Head
          {
            OFFSET 0 7.53384 0
            CHANNELS 3 Zrotation Xrotation Yrotation
            End Site
            {
              OFFSET 0 18.2361 -6.01402
            }
          }
        }
        JOINT RightShoulder
        {
          OFFSET -4.08965 10.4888 -0.569457
          CHANNELS 3 Zrotation Xrotation Yrotation
          JOINT RightArm
          {
            OFFSET 0 13.757 0
            CHANNELS 3 Zrotation Xrotation Yrotation
            JOINT RightArmRoll
            {
              OFFSET 0 6.94478 0
              CHANNELS 3 Zrotation Xrotation Yrotation
              JOINT RightForeArm
              {
                OFFSET 0 20.2277 0
                CHANNELS 3 Zrotation Xrotation Yrotation
                JOINT RightForeArmRoll
                {
                  OFFSET 0 7.79312 0
                  CHANNELS 3 Zrotation Xrotation Yrotation
                  JOINT RightHand
                  {
                    OFFSET 0 15.6391 0
                    CHANNELS 3 Zrotation Xrotation Yrotation
                    End Site
                    {
                      OFFSET 0 0 0
                    }
                  }
                }
              }
            }
          }
        }
        JOINT LeftShoulder
        {
          OFFSET 4.08965 10.4888 -0.569457
          CHANNELS 3 Zrotation Xrotation Yrotation
          JOINT LeftArm
          {
            OFFSET 0 13.757 0
            CHANNELS 3 Zrotation Xrotation Yrotation
            JOINT LeftArmRoll
            {
              OFFSET 0 6.94478 0
              CHANNELS 3 Zrotation Xrotation Yrotation
              JOINT LeftForeArm
              {
                OFFSET 0 20.2277 0
                CHANNELS 3 Zrotation Xrotation Yrotation
                JOINT LeftForeArmRoll
                {
                  OFFSET 0 7.79312 0
                  CHANNELS 3 Zrotation Xrotation Yrotation
                  JOINT LeftHand
                  {
                    OFFSET 0 15.6391 0
                    CHANNELS 3 Zrotation Xrotation Yrotation
                    End Site
                    {
                      OFFSET 0 0 0
                    }
                  }
                }
              }
            }
          }
        }
      }
    }
  }
  JOINT RightUpLeg
  {
    OFFSET -6.91416 -1.26788 -1.06358
    CHANNELS 3 Zrotation Xrotation Yrotation
    JOINT RightUpLegRoll
    {
      OFFSET 0 18.3378 0
      CHANNELS 3 Zrotation Xrotation Yrotation
      JOINT RightLeg
      {
        OFFSET 0 -22.7085 0
        CHANNELS 3 Zrotation Xrotation Yrotation
        JOINT RightLegRoll
        {
          OFFSET 0 22.7828 0
          CHANNELS 3 Zrotation Xrotation Yrotation
          JOINT RightFoot
          {
            OFFSET 0 18.9629 0
            CHANNELS 3 Zrotation Xrotation Yrotation
            JOINT RightToeBase
            {
              OFFSET 0 15.852 0
              CHANNELS 3 Zrotation Xrotation Yrotation
              End Site
              {
                OFFSET 0.00671906 7.67701 -0.884893
              }
            }
          }
        }
      }
    }
  }
  JOINT LeftUpLeg
  {
    OFFSET 6.91416 -1.26788 -1.06358
    CHANNELS 3 Zrotation Xrotation Yrotation
    JOINT LeftUpLegRoll
    {
      OFFSET 0 18.3379 0
      CHANNELS 3 Zrotation Xrotation Yrotation
      JOINT LeftLeg
      {
        OFFSET 0 22.7084 0
        CHANNELS 3 Zrotation Xrotation Yrotation
        JOINT LeftLegRoll
        {
          OFFSET 0 22.9934 0
          CHANNELS 3 Zrotation Xrotation Yrotation
          JOINT LeftFoot
          {
            OFFSET 0 18.7522 0
            CHANNELS 3 Zrotation Xrotation Yrotation
            JOINT LeftToeBase
            {
              OFFSET 0 15.852 0
              CHANNELS 3 Zrotation Xrotation Yrotation
              End Site
              {
                OFFSET -0.030112 7.67701 -0.884893
              }
            }
          }
        }
      }
    }
  }
}
MOTION
Frames: 8
Frame Time: 0.00208333
49.6661 94.168 10.9963 -1.14982 -4.39391 -2.28443 0.0578246 -1.0643 0.345908 0.130963 1.89162 0.705118 0.122859 3.53663 0.703289 0.190141 18.9498 -0.179665 1.02308 -14.3943 0.117186 80.8404 -4.18062 -4.07449 89.7079 7.82616 10.2549 -5.7227e-006 1.1393e-007 -3.17859e-006 13.6936 24.5506 -4.07896 -3.84349e-006 -8.68217e-006 -3.00909 8.02884 -4.95162 0.697779 -65.5719 1.51486 0.0173996 -106.189 0.0160352 -14.6844 -4.33599e-015 -7.95139e-016 -0 -4.41351 21.4853 2.09355 -1.11553e-005 -5.32548e-006 3.01193 -8.02971 -4.95156 -0.697687 179.947 2.01753 -0.661708 180 7.01544e-015 178.91 177.766 11.795 179.75 -2.92717e-006 -1.15251e-006 0.303241 -20.9235 70.3537 21.7346 8.13649 25.2327 -3.48773 179.372 -0.342182 7.03088 4.54188e-006 -4.6773e-006 -1.49442 -4.88207 -12.8677 -0.365605 1.26754e-006 2.18775e-006 -0.308949 27.7366 72.9235 -25.4293 -8.13649 25.2327 3.48774 
49.6662 94.1816 10.9992 -1.15203 -4.39383 -2.27465 0.0578542 -1.06556 0.346645 0.130897 1.88795 0.704456 0.122785 3.53296 0.702639 0.204278 18.9514 -0.184773 1.01119 -14.3893 0.113531 80.8057 -4.18299 -4.07326 89.7602 7.90808 10.4059 -5.7227e-006 1.1393e-007 -3.17859e-006 13.6075 24.3851 -4.04386 -3.84349e-006 -8.68217e-006 -3.00909 8.02884 -4.95162 0.697779 -65.5784 1.53028 0.0101398 -106.189 0.0324762 -14.7174 4.9075e-015 9.93923e-016 1.59028e-015 -4.37915 21.5533 2.08709 -1.11553e-005 -5.32548e-006 3.01193 -8.02971 -4.95156 -0.697687 179.953 2.00987 -0.67108 180 7.01544e-015 178.91 177.776 11.7774 179.748 -2.92717e-006 -1.15251e-006 0.303189 -20.9136 70.3512 21.7315 8.13649 25.2327 -3.48773 179.379 -0.350869 7.02752 4.54188e-006 -4.6773e-006 -1.49363 -4.88137 -12.8513 -0.364238 1.26754e-006 2.18775e-006 -0.308949 27.7187 72.9161 -25.4171 -8.13649 25.2327 3.48774 
49.6596 94.1757 10.9798 -1.15435 -4.39371 -2.26483 0.0578983 -1.06679 0.347422 0.130879 1.88429 0.703776 0.122758 3.52931 0.701973 0.218254 18.9535 -0.189848 0.999127 -14.385 0.109813 80.7705 -4.18537 -4.07201 89.8115 7.98768 10.5518 -5.7227e-006 1.1393e-007 -3.17859e-006 13.5254 24.2243 -4.00985 -3.84349e-006 -8.68217e-006 -3.00909 8.02884 -4.95162 0.697779 -65.5857 1.5467 0.0024548 -106.187 0.0476818 -14.7479 8.33653e-015 1.63997e-015 -1.59028e-015 -4.34747 21.6246 2.08157 -1.11553e-005 -5.32548e-006 3.01193 -8.02971 -4.95156 -0.697687 179.959 2.00178 -0.680311 180 7.01544e-015 178.91 177.785 11.7588 179.746 -2.92717e-006 -1.15251e-006 0.303111 -20.9035 70.3485 21.7281 8.13649 25.2327 -3.48773 179.385 -0.359953 7.02403 4.54188e-006 -4.6773e-006 -1.49283 -4.88068 -12.8342 -0.36282 1.26754e-006 2.18775e-006 -0.308949 27.7003 72.9086 -25.4047 -8.13649 25.2327 3.48774 
49.6597 94.1889 10.9821 -1.15676 -4.39354 -2.25497 0.0579526 -1.06802 0.348229 0.130893 1.88064 0.703086 0.122763 3.52566 0.701295 0.232116 18.956 -0.1949 0.986933 -14.3811 0.10605 80.735 -4.18777 -4.07074 89.8619 8.06562 10.6941 -5.7227e-006 1.1393e-007 -3.17859e-006 13.446 24.0669 -3.97663 -3.84349e-006 -8.68217e-006 -3.00909 8.02884 -4.95162 0.697779 -65.5935 1.5638 -0.00552799 -106.184 0.062022 -14.7766 -4.5969e-016 1.14301e-015 3.18055e-015 -4.31766 21.6982 2.0767 -1.11553e-005 -5.32548e-006 3.01193 -8.02971 -4.95156 -0.697687 179.965 1.99341 -0.689444 180 7.01544e-015 178.91 177.794 11.7394 179.744 -2.92717e-006 -1.15251e-006 0.303016 -20.8932 70.3455 21.7245 8.13649 25.2327 -3.48773 179.392 -0.369314 7.02045 4.54188e-006 -4.6773e-006 -1.49202 -4.88 -12.8167 -0.361366 1.26754e-006 2.18775e-006 -0.308949 27.6816 72.9009 -25.3922 -8.13649 25.2327 3.48774 
49.6605 94.1859 10.9792 -1.15921 -4.39336 -2.2451 0.0580127 -1.06924 0.349053 0.130925 1.87699 0.702389 0.122788 3.52201 0.70061 0.245915 18.9586 -0.199938 0.974668 -14.3775 0.102261 80.6992 -4.19017 -4.06946 89.9118 8.14257 10.8344 -5.7227e-006 1.1393e-007 -3.17859e-006 13.3683 23.9114 -3.9439 -3.84349e-006 -8.68217e-006 -3.00909 8.02884 -4.95162 0.697779 -65.6016 1.58129 -0.013681 -106.18 0.0758665 -14.8043 -6.3052e-015 0 1.59028e-015 -4.28891 21.773 2.07221 -1.11553e-005 -5.32548e-006 3.01193 -8.02971 -4.95156 -0.697687 179.972 1.98487 -0.698521 180 7.01544e-015 178.91 177.803 11.7197 179.743 -2.92717e-006 -1.15251e-006 0.302911 -20.8828 70.3423 21.7207 8.13649 25.2327 -3.48773 179.399 -0.378834 7.01681 4.54188e-006 -4.6773e-006 -1.49121 -4.87932 -12.7988 -0.359892 1.26754e-006 2.18775e-006 -0.308949 27.6628 72.8932 -25.3796 -8.13649 25.2327 3.48774 
49.6606 94.1893 10.9766 -1.16167 -4.39317 -2.23522 0.0580743 -1.07046 0.34988 0.130963 1.87335 0.70169 0.122816 3.51837 0.699924 0.259698 18.9614 -0.204974 0.962384 -14.374 0.0984666 80.6635 -4.19258 -4.06818 89.9612 8.21918 10.9743 -5.7227e-006 1.1393e-007 -3.17859e-006 13.2912 23.7563 -3.91138 -3.84349e-006 -8.68217e-006 -3.00909 8.02884 -4.95162 0.697779 -65.6098 1.59889 -0.0218767 -106.176 0.0895844 -14.8318 5.58461e-015 1.3418e-015 -0 -4.26042 21.8483 2.06782 -1.11553e-005 -5.32548e-006 3.01193 -8.02971 -4.95156 -0.697687 179.978 1.97628 -0.707583 180 7.01544e-015 178.91 177.812 11.6999 179.741 -2.92717e-006 -1.15251e-006 0.302803 -20.8724 70.3391 21.7169 8.13649 25.2327 -3.48773 179.406 -0.388394 7.01316 4.54188e-006 -4.6773e-006 -1.49039 -4.87864 -12.7809 -0.358413 1.26754e-006 2.18775e-006 -0.308949 27.6439 72.8855 -25.367 -8.13649 25.2327 3.48774 
49.6578 94.1951 10.9922 -1.16411 -4.39299 -2.22535 0.0581331 -1.07168 0.3507 0.13099 1.8697 0.700994 0.122836 3.51472 0.699242 0.273514 18.964 -0.210016 0.950138 -14.3704 0.0946848 80.6278 -4.19498 -4.0669 90.0103 8.2961 11.1153 -5.7227e-006 1.1393e-007 -3.17859e-006 13.2135 23.6003 -3.87877 -3.84349e-006 -8.68217e-006 -3.00909 8.02884 -4.95162 0.697779 -65.6178 1.61629 -0.0299874 -106.172 0.103545 -14.8597 4.52235e-015 1.78906e-015 -1.59028e-015 -4.23137 21.9228 2.06323 -1.11553e-005 -5.32548e-006 3.01193 -8.02971 -4.95156 -0.697687 179.984 1.96778 -0.716673 180 7.01544e-015 178.91 177.821 11.6802 179.739 -2.92717e-006 -1.15251e-006 0.3027 -20.8621 70.336 21.7131 8.13649 25.2327 -3.48773 179.412 -0.397875 7.00954 4.54188e-006 -4.6773e-006 -1.48958 -4.87796 -12.7632 -0.356945 1.26754e-006 2.18775e-006 -0.308949 27.6251 72.8778 -25.3545 -8.13649 25.2327 3.48774 
49.653 94.1917 10.9846 -1.16649 -4.39283 -2.2155 0.0581846 -1.07291 0.351498 0.130995 1.86605 0.700307 0.122831 3.51107 0.698567 0.287411 18.9664 -0.215075 0.937983 -14.3664 0.0909351 80.5923 -4.19737 -4.06563 90.0593 8.37398 11.2589 -5.7227e-006 1.1393e-007 -3.17859e-006 13.1342 23.4419 -3.84579 -3.84349e-006 -8.68217e-006 -3.00909 8.02884 -4.95162 0.697779 -65.6254 1.63319 -0.0378857 -106.169 0.118116 -14.8889 -5.36097e-015 -8.44835e-016 -1.59028e-015 -4.20097 21.9957 2.05818 -1.11553e-005 -5.32548e-006 3.01193 -8.02971 -4.95156 -0.697687 179.99 1.95949 -0.725834 180 7.01544e-015 178.91 177.83 11.6611 179.737 -2.92717e-006 -1.15251e-006 0.302609 -20.8518 70.3331 21.7095 8.13649 25.2327 -3.48773 179.419 -0.407158 7.00598 4.54188e-006 -4.6773e-006 -1.48878 -4.87727 -12.7457 -0.355503 1.26754e-006 2.18775e-006 -0.308949 27.6066 72.8702 -25.342 -8.13649 25.2327 3.48774 
